<?xml version="1.0" encoding="UTF-8"?><svg id="Layer_2" xmlns="http://www.w3.org/2000/svg" viewBox="0 0 109.92 111.4"><defs><style>.cls-1{isolation:isolate;}</style></defs><g id="Layer_1-2"><g class="cls-1"><path d="M67.13,42.9v-1.97l5.44-4.04v-13.98h-22.23v15.62l6.14,1.91-1.28,2.46h-18.18v-1.97l5.44-4.04V4.35l-6.14-1.86L37.67.04h18.18v1.97l-5.5,4.1v14.09h22.23V4.35l-6.14-1.86,1.33-2.46h18.18v1.97l-5.5,4.1v32.49c-4.44,1.44-8.88,2.87-13.32,4.31Z"/></g><g class="cls-1"><path d="M45.03,12.96l-2.02.65-7.82-10.81h-6.71v35.82l6.14,1.86-1.27,2.46H15.16v-1.97l5.44-4.04V2.81h-6.54l-7.82,10.81-2.03-.65V0c13.6,0,27.21.01,40.81.02v12.94Z"/></g><g class="cls-1"><path d="M105.7,42.98c-12.82.04-25.65.07-38.47.11v-1.97l5.44-4.04V4.48l-6.14-1.91,1.33-2.46c12.41,0,24.81,0,37.22-.01v11.87l-2.02.65-6.95-9.72h-15.57v16.82h8.63l4.23-6.83h2.08v16.43l-2.6,1.26-3.65-8.08h-8.69v17.75h15.29l7.81-10.87,2.03.71.04,12.89Z"/></g><path d="M7.72,100.52c.75.15,1.29.32,1.63.51v3.23h-.86c-.52-.67-1.12-1.2-1.79-1.58s-1.37-.57-2.09-.57c-.59,0-1.04.26-1.34.79-.3.53-.45,1.3-.45,2.32,0,1.23.26,2.26.79,3.07.53.82,1.29,1.23,2.28,1.23.78,0,1.9-.52,3.36-1.57l.6.84-3.05,2.41c-.58.12-1.27.18-2.07.18-.9,0-1.71-.23-2.42-.69-.72-.46-1.28-1.09-1.69-1.88-.41-.79-.61-1.67-.61-2.63,0-1.04.3-2.02.89-2.92.6-.9,1.34-1.63,2.24-2.17.9-.54,1.77-.81,2.61-.81.56,0,1.22.08,1.97.23Z"/><path d="M21.01,100.98c.72.46,1.28,1.09,1.68,1.88s.6,1.67.6,2.63c0,1.04-.32,2.02-.95,2.92-.64.9-1.44,1.63-2.4,2.17-.96.54-1.9.81-2.79.81s-1.7-.23-2.42-.69c-.72-.46-1.28-1.09-1.69-1.88-.41-.79-.61-1.67-.61-2.63,0-1.04.32-2.02.95-2.92.64-.9,1.44-1.63,2.4-2.17.96-.54,1.9-.81,2.79-.81s1.72.23,2.44.69ZM15.23,105.23c0,1.25.26,2.28.79,3.11.53.83,1.29,1.25,2.28,1.25.71,0,1.25-.27,1.61-.8s.54-1.32.54-2.35c0-1.23-.26-2.26-.79-3.08-.53-.82-1.28-1.24-2.26-1.24-1.45,0-2.17,1.04-2.17,3.11Z"/><path d="M31.03,111.22h-5.75v-.72l1.79-1.43v-12.1l-1.79-1.25v-.72l3.54-1.35h.87v15.98l1.81.68-.46.9Z"/><path d="M38.52,111.22h-5.75v-.72l1.79-1.43v-12.1l-1.79-1.25v-.72l3.54-1.35h.87v15.98l1.81.68-.46.9Z"/><path d="M47.78,111.22c-.58.12-1.27.18-2.09.18-.9,0-1.7-.23-2.42-.69-.72-.46-1.28-1.09-1.69-1.88-.41-.79-.61-1.67-.61-2.63,0-1.04.32-2.02.95-2.92s1.44-1.63,2.4-2.17c.96-.54,1.9-.81,2.79-.81,1.3,0,2.31.51,3.02,1.53s1.07,2.38,1.05,4.08h-7.39c.09,1.07.4,1.95.92,2.62.52.68,1.23,1.01,2.13,1.01s2.14-.63,3.78-1.89l.6.82-3.46,2.75ZM43.81,104.97h4.52c-.12-.68-.25-1.21-.37-1.59-.13-.38-.35-.68-.65-.91-.31-.23-.76-.35-1.35-.35h.02c-1.38,0-2.1.95-2.17,2.85Z"/><path d="M61.69,100.52c.75.15,1.29.32,1.63.51v3.23h-.87c-.52-.67-1.12-1.2-1.79-1.58-.67-.38-1.37-.57-2.09-.57-.59,0-1.04.26-1.34.79-.3.53-.45,1.3-.45,2.32,0,1.23.26,2.26.79,3.07.53.82,1.29,1.23,2.28,1.23.78,0,1.9-.52,3.36-1.57l.6.84-3.05,2.41c-.58.12-1.27.18-2.07.18-.9,0-1.7-.23-2.42-.69-.72-.46-1.28-1.09-1.69-1.88-.41-.79-.61-1.67-.61-2.63,0-1.04.3-2.02.89-2.92.6-.9,1.34-1.63,2.24-2.17.9-.54,1.77-.81,2.61-.81.56,0,1.22.08,1.97.23Z"/><path d="M72.02,111.24c-.34.11-.74.16-1.22.16-1.15,0-1.99-.29-2.52-.87-.53-.58-.79-1.48-.79-2.7v-5.81h-2.17v-.86l3.92-4.5h.87v4.44h3.62v.92h-3.62v5.97c0,1.06.52,1.59,1.57,1.59.28,0,.55-.06.8-.17.25-.11.58-.32.98-.61l.6.84-2.03,1.61Z"/><path d="M81.14,111.2h-5.75v-.72l1.79-1.43v-5.63l-1.79-1.23v-.72l3.54-1.37h.86v9.52l1.81.66-.46.9ZM79.49,94.55c.28.31.42.7.42,1.16,0,.32-.1.63-.3.91-.2.29-.46.52-.76.68-.31.17-.61.25-.9.25-.43,0-.78-.15-1.06-.46s-.42-.7-.42-1.17c0-.32.1-.63.3-.91.2-.29.45-.52.76-.68.31-.17.6-.25.88-.25.44,0,.8.16,1.09.47Z"/><path d="M92.18,100.98c.72.46,1.28,1.09,1.68,1.88s.6,1.67.6,2.63c0,1.04-.32,2.02-.95,2.92-.64.9-1.44,1.63-2.4,2.17-.96.54-1.9.81-2.79.81s-1.7-.23-2.42-.69c-.72-.46-1.28-1.09-1.69-1.88-.41-.79-.61-1.67-.61-2.63,0-1.04.32-2.02.95-2.92.64-.9,1.44-1.63,2.4-2.17.96-.54,1.9-.81,2.79-.81s1.72.23,2.44.69ZM86.41,105.23c0,1.25.26,2.28.79,3.11.53.83,1.29,1.25,2.28,1.25.71,0,1.25-.27,1.61-.8s.54-1.32.54-2.35c0-1.23-.26-2.26-.79-3.08-.53-.82-1.28-1.24-2.26-1.24-1.45,0-2.17,1.04-2.17,3.11Z"/><path d="M109.46,111.22h-3.96v-6.71c0-.71-.11-1.21-.34-1.5-.23-.29-.62-.43-1.19-.43-.42,0-.83.07-1.25.22-.42.15-.9.43-1.45.84v6.01l1.81.66-.46.9h-5.75v-.72l1.79-1.43v-5.47l-1.79-1.06v-.72l3.58-1.71.7,2.55,2.77-2.21c.31-.11.68-.16,1.13-.16.94,0,1.68.28,2.23.83s.82,1.31.82,2.26v6.25l1.81.68-.46.9Z"/><g class="cls-1"><path d="M42.08,90.76v-1.96l5.44-4.04v-32.6l-6.14-1.91,1.33-2.46h37.22v11.85l-2.03.65-6.95-9.72h-15.57v16.82h8.62l4.23-6.83h2.08v16.43l-2.61,1.26-3.65-8.09h-8.68v17.75h15.29l7.81-10.86,2.03.71v12.94c-12.81.02-25.62.04-38.44.05Z"/></g><g class="cls-1"><path d="M58.05,90.76h-18.18v-1.96l5.44-4.04v-29.38l-15.23,35.39h-3.59l-15.17-35.77v30.53l6.14,2.78-1.28,2.46H2.37v-1.96l5.44-4.04v-31.57l-6.14-2.95,1.33-2.46h13.31l14.18,33.48,14.18-33.48h14.01v1.97l-5.5,4.04v32.6l6.14,1.91-1.28,2.46Z"/></g><path d="M91.82,47.81v2.77h6.59l7.82,10.81,2.03-.65v-12.91c-5.48,0-10.95,0-16.43-.01Z"/><path d="M92.79,50.58h.02v-2.77c-8.09,0-16.19-.01-24.28-.02v2.76c3.28,0,6.56.02,9.84.03h6.54v34.13l-5.44,4.04v1.97h18.18l1.27-2.46-6.13-1.85v-35.82Z"/></g></svg>